<svg xmlns="http://www.w3.org/2000/svg" viewBox="0 0 800 560" width="800" height="560" role="img" aria-label="Century Egg and Chicken Congee">
  <defs>
    <linearGradient id="bg" x1="0" y1="0" x2="1" y2="1">
      <stop offset="0%" stop-color="#fdeaea"/>
      <stop offset="100%" stop-color="#fdf3da"/>
    </linearGradient>
    <radialGradient id="glow" cx="50%" cy="42%" r="62%">
      <stop offset="0%" stop-color="#ffffff" stop-opacity="0.55"/>
      <stop offset="100%" stop-color="#ffffff" stop-opacity="0"/>
    </radialGradient>
  </defs>
  <rect width="800" height="560" fill="url(#bg)"/>
  <rect width="800" height="560" fill="url(#glow)"/>
  <circle cx="124.6" cy="332.3" r="4.5" fill="#ffffff" opacity="0.42"/><circle cx="688.0" cy="331.3" r="7.1" fill="#ffffff" opacity="0.42"/><circle cx="750.7" cy="109.9" r="9.9" fill="#ffffff" opacity="0.32"/><circle cx="276.2" cy="24.7" r="4.4" fill="#ffffff" opacity="0.46"/><circle cx="692.0" cy="238.1" r="5.1" fill="#ffffff" opacity="0.25"/><circle cx="752.5" cy="162.0" r="10.1" fill="#ffffff" opacity="0.21"/><circle cx="114.9" cy="327.7" r="11.3" fill="#ffffff" opacity="0.35"/><circle cx="64.8" cy="193.0" r="8.1" fill="#ffffff" opacity="0.32"/><circle cx="70.7" cy="248.0" r="10.9" fill="#ffffff" opacity="0.41"/><circle cx="233.3" cy="23.7" r="7.2" fill="#ffffff" opacity="0.28"/><circle cx="607.8" cy="426.6" r="11.4" fill="#ffffff" opacity="0.29"/><circle cx="642.3" cy="24.3" r="11.4" fill="#ffffff" opacity="0.39"/><circle cx="185.7" cy="483.9" r="5.4" fill="#ffffff" opacity="0.35"/><circle cx="110.8" cy="462.8" r="8.3" fill="#ffffff" opacity="0.41"/>
  
    <circle cx="400" cy="290" r="196" fill="#ffffff" opacity="0.96"/>
    <circle cx="400" cy="290" r="180" fill="#e3b581" opacity="0.82"/>
    <circle cx="400" cy="290" r="180" fill="none" stroke="#000000" stroke-opacity="0.06" stroke-width="3"/>
  <ellipse cx="400" cy="296" rx="74" ry="56" fill="#fbfaf3" opacity="0.95"/><ellipse cx="479.5" cy="291.1" rx="29.7" ry="25.7" fill="#f4f1e6" opacity="0.94" transform="rotate(66 479.5 291.1)"/><ellipse cx="463.3" cy="360.2" rx="26.7" ry="18.3" fill="#fbfaf4" opacity="0.94" transform="rotate(61 463.3 360.2)"/><ellipse cx="407.2" cy="353.7" rx="34.4" ry="27.7" fill="#fbfaf4" opacity="0.94" transform="rotate(24 407.2 353.7)"/><ellipse cx="348.9" cy="351.0" rx="31.6" ry="26.4" fill="#f4f1e6" opacity="0.94" transform="rotate(53 348.9 351.0)"/><ellipse cx="308.9" cy="319.5" rx="41.1" ry="28.5" fill="#fbfaf4" opacity="0.94" transform="rotate(137 308.9 319.5)"/><ellipse cx="309.1" cy="275.1" rx="36.1" ry="31.6" fill="#f4f1e6" opacity="0.94" transform="rotate(167 309.1 275.1)"/><ellipse cx="351.0" cy="248.6" rx="44.1" ry="32.3" fill="#f4f1e6" opacity="0.94" transform="rotate(4 351.0 248.6)"/><ellipse cx="382.6" cy="206.2" rx="40.7" ry="32.4" fill="#e6e1cf" opacity="0.94" transform="rotate(55 382.6 206.2)"/><ellipse cx="474.1" cy="226.4" rx="21.8" ry="18.3" fill="#e6e1cf" opacity="0.94" transform="rotate(127 474.1 226.4)"/><ellipse cx="445.1" cy="263.7" rx="36.5" ry="31.6" fill="#e6e1cf" opacity="0.94" transform="rotate(154 445.1 263.7)"/>
  <circle cx="512.5" cy="303.7" r="3.3" fill="#3f6b32" opacity="0.7"/><circle cx="413.7" cy="376.8" r="3.9" fill="#ffffff" opacity="0.7"/><circle cx="394.5" cy="276.5" r="2.0" fill="#3f6b32" opacity="0.7"/><circle cx="479.9" cy="269.1" r="3.4" fill="#ffffff" opacity="0.7"/><circle cx="325.1" cy="213.2" r="3.5" fill="#ffffff" opacity="0.7"/><circle cx="359.7" cy="342.3" r="2.0" fill="#3f6b32" opacity="0.7"/><circle cx="445.9" cy="332.9" r="2.4" fill="#ffffff" opacity="0.7"/><circle cx="324.4" cy="250.3" r="1.7" fill="#ffffff" opacity="0.7"/><circle cx="476.4" cy="250.9" r="1.9" fill="#3f6b32" opacity="0.7"/><circle cx="480.0" cy="311.9" r="2.6" fill="#ffffff" opacity="0.7"/><circle cx="281.6" cy="313.3" r="3.9" fill="#3f6b32" opacity="0.7"/><circle cx="370.3" cy="365.0" r="3.7" fill="#3f6b32" opacity="0.7"/><circle cx="419.3" cy="347.1" r="3.4" fill="#ffffff" opacity="0.7"/><circle cx="402.1" cy="297.6" r="2.1" fill="#3f6b32" opacity="0.7"/><circle cx="494.8" cy="237.6" r="2.6" fill="#3f6b32" opacity="0.7"/><circle cx="418.3" cy="301.7" r="3.6" fill="#ffffff" opacity="0.7"/>
  
    <g stroke="#ffffff" stroke-opacity="0.65" stroke-width="7" stroke-linecap="round" fill="none">
      <path d="M354 98 c -14 -26 14 -42 0 -62"/>
      <path d="M400 86 c -16 -30 16 -48 0 -70"/>
      <path d="M446 98 c -14 -26 14 -42 0 -62"/>
    </g>
</svg>
