<svg xmlns="http://www.w3.org/2000/svg" viewBox="0 0 800 560" width="800" height="560" role="img" aria-label="Hot and Sour Soup">
  <defs>
    <linearGradient id="bg" x1="0" y1="0" x2="1" y2="1">
      <stop offset="0%" stop-color="#fdeaea"/>
      <stop offset="100%" stop-color="#fdf3da"/>
    </linearGradient>
    <radialGradient id="glow" cx="50%" cy="42%" r="62%">
      <stop offset="0%" stop-color="#ffffff" stop-opacity="0.55"/>
      <stop offset="100%" stop-color="#ffffff" stop-opacity="0"/>
    </radialGradient>
  </defs>
  <rect width="800" height="560" fill="url(#bg)"/>
  <rect width="800" height="560" fill="url(#glow)"/>
  <circle cx="99.8" cy="518.2" r="9.1" fill="#ffffff" opacity="0.46"/><circle cx="752.5" cy="230.3" r="4.7" fill="#ffffff" opacity="0.44"/><circle cx="569.0" cy="461.2" r="3.8" fill="#ffffff" opacity="0.32"/><circle cx="468.1" cy="21.3" r="9.4" fill="#ffffff" opacity="0.37"/><circle cx="169.4" cy="394.4" r="7.5" fill="#ffffff" opacity="0.45"/><circle cx="627.0" cy="401.1" r="6.1" fill="#ffffff" opacity="0.28"/><circle cx="207.2" cy="153.2" r="11.1" fill="#ffffff" opacity="0.38"/><circle cx="672.3" cy="108.1" r="11.2" fill="#ffffff" opacity="0.36"/><circle cx="692.1" cy="459.7" r="8.1" fill="#ffffff" opacity="0.29"/><circle cx="654.7" cy="537.7" r="5.7" fill="#ffffff" opacity="0.19"/><circle cx="608.0" cy="427.4" r="8.4" fill="#ffffff" opacity="0.32"/><circle cx="143.0" cy="21.5" r="5.9" fill="#ffffff" opacity="0.34"/><circle cx="684.5" cy="527.5" r="11.1" fill="#ffffff" opacity="0.44"/><circle cx="658.1" cy="216.2" r="4.6" fill="#ffffff" opacity="0.29"/>
  
    <circle cx="400" cy="290" r="196" fill="#ffffff" opacity="0.96"/>
    <circle cx="400" cy="290" r="180" fill="#cf9450" opacity="0.82"/>
    <circle cx="400" cy="290" r="180" fill="none" stroke="#000000" stroke-opacity="0.06" stroke-width="3"/>
  <ellipse cx="400" cy="296" rx="74" ry="56" fill="#e3b581" opacity="0.95"/><ellipse cx="510.6" cy="323.2" rx="22.9" ry="20.6" fill="#cf9450" opacity="0.94" transform="rotate(30 510.6 323.2)"/><ellipse cx="446.5" cy="329.5" rx="28.8" ry="21.2" fill="#e3b581" opacity="0.94" transform="rotate(32 446.5 329.5)"/><ellipse cx="355.8" cy="357.9" rx="26.9" ry="21.0" fill="#5f9e49" opacity="0.94" transform="rotate(28 355.8 357.9)"/><ellipse cx="339.4" cy="317.8" rx="22.9" ry="17.8" fill="#e3b581" opacity="0.94" transform="rotate(62 339.4 317.8)"/><ellipse cx="285.9" cy="289.8" rx="45.9" ry="34.1" fill="#b67c3c" opacity="0.94" transform="rotate(91 285.9 289.8)"/><ellipse cx="355.2" cy="238.8" rx="32.3" ry="28.0" fill="#5f9e49" opacity="0.94" transform="rotate(138 355.2 238.8)"/><ellipse cx="405.6" cy="224.0" rx="29.7" ry="25.9" fill="#e3b581" opacity="0.94" transform="rotate(75 405.6 224.0)"/><ellipse cx="494.6" cy="253.2" rx="38.6" ry="32.2" fill="#b67c3c" opacity="0.94" transform="rotate(37 494.6 253.2)"/>
  <circle cx="280.4" cy="261.8" r="2.7" fill="#ffffff" opacity="0.7"/><circle cx="302.9" cy="266.9" r="2.8" fill="#3f6b32" opacity="0.7"/><circle cx="410.2" cy="261.6" r="2.1" fill="#3f6b32" opacity="0.7"/><circle cx="397.3" cy="287.9" r="1.8" fill="#3f6b32" opacity="0.7"/><circle cx="502.8" cy="334.1" r="1.8" fill="#3f6b32" opacity="0.7"/><circle cx="407.7" cy="294.7" r="3.0" fill="#3f6b32" opacity="0.7"/><circle cx="443.4" cy="363.2" r="3.5" fill="#ffffff" opacity="0.7"/><circle cx="347.2" cy="357.2" r="2.3" fill="#ffffff" opacity="0.7"/><circle cx="452.6" cy="277.8" r="1.7" fill="#ffffff" opacity="0.7"/><circle cx="366.2" cy="344.4" r="1.8" fill="#ffffff" opacity="0.7"/><circle cx="410.9" cy="280.6" r="2.0" fill="#ffffff" opacity="0.7"/><circle cx="395.6" cy="375.4" r="2.3" fill="#ffffff" opacity="0.7"/><circle cx="377.4" cy="259.7" r="2.0" fill="#ffffff" opacity="0.7"/><circle cx="410.5" cy="336.0" r="3.6" fill="#ffffff" opacity="0.7"/><circle cx="394.8" cy="363.4" r="2.1" fill="#3f6b32" opacity="0.7"/><circle cx="410.3" cy="282.8" r="1.8" fill="#3f6b32" opacity="0.7"/>
  
    <g stroke="#ffffff" stroke-opacity="0.65" stroke-width="7" stroke-linecap="round" fill="none">
      <path d="M354 98 c -14 -26 14 -42 0 -62"/>
      <path d="M400 86 c -16 -30 16 -48 0 -70"/>
      <path d="M446 98 c -14 -26 14 -42 0 -62"/>
    </g>
</svg>
