<svg xmlns="http://www.w3.org/2000/svg" viewBox="0 0 800 560" width="800" height="560" role="img" aria-label="Pork Sinigang">
  <defs>
    <linearGradient id="bg" x1="0" y1="0" x2="1" y2="1">
      <stop offset="0%" stop-color="#fff2d9"/>
      <stop offset="100%" stop-color="#ffdcc4"/>
    </linearGradient>
    <radialGradient id="glow" cx="50%" cy="42%" r="62%">
      <stop offset="0%" stop-color="#ffffff" stop-opacity="0.55"/>
      <stop offset="100%" stop-color="#ffffff" stop-opacity="0"/>
    </radialGradient>
  </defs>
  <rect width="800" height="560" fill="url(#bg)"/>
  <rect width="800" height="560" fill="url(#glow)"/>
  <circle cx="723.0" cy="514.8" r="7.7" fill="#ffffff" opacity="0.33"/><circle cx="532.5" cy="508.4" r="5.1" fill="#ffffff" opacity="0.27"/><circle cx="135.0" cy="463.4" r="11.2" fill="#ffffff" opacity="0.22"/><circle cx="109.7" cy="33.8" r="4.1" fill="#ffffff" opacity="0.22"/><circle cx="761.7" cy="141.4" r="10.6" fill="#ffffff" opacity="0.32"/><circle cx="458.1" cy="66.3" r="3.4" fill="#ffffff" opacity="0.24"/><circle cx="182.4" cy="64.3" r="3.2" fill="#ffffff" opacity="0.35"/><circle cx="150.3" cy="381.4" r="9.9" fill="#ffffff" opacity="0.23"/><circle cx="549.7" cy="78.6" r="3.5" fill="#ffffff" opacity="0.30"/><circle cx="91.4" cy="197.7" r="3.1" fill="#ffffff" opacity="0.36"/><circle cx="138.5" cy="322.1" r="3.6" fill="#ffffff" opacity="0.30"/><circle cx="614.2" cy="154.0" r="11.1" fill="#ffffff" opacity="0.38"/><circle cx="163.8" cy="317.5" r="4.8" fill="#ffffff" opacity="0.30"/><circle cx="595.6" cy="462.4" r="7.3" fill="#ffffff" opacity="0.37"/>
  
    <circle cx="400" cy="290" r="196" fill="#ffffff" opacity="0.96"/>
    <circle cx="400" cy="290" r="164" fill="#ffffff"/>
    <circle cx="400" cy="290" r="164" fill="none" stroke="#000000" stroke-opacity="0.05" stroke-width="2"/>
  <ellipse cx="500.0" cy="294.1" rx="27.6" ry="22.2" fill="#c97a73" opacity="0.94" transform="rotate(47 500.0 294.1)"/><ellipse cx="421.8" cy="320.8" rx="36.1" ry="32.7" fill="#e0948e" opacity="0.94" transform="rotate(178 421.8 320.8)"/><ellipse cx="399.8" cy="379.6" rx="40.0" ry="31.1" fill="#5f9e49" opacity="0.94" transform="rotate(152 399.8 379.6)"/><ellipse cx="373.6" cy="315.3" rx="37.6" ry="25.8" fill="#f0b9b3" opacity="0.94" transform="rotate(150 373.6 315.3)"/><ellipse cx="312.3" cy="322.6" rx="35.5" ry="31.2" fill="#e0948e" opacity="0.94" transform="rotate(88 312.3 322.6)"/><ellipse cx="325.8" cy="280.2" rx="37.7" ry="25.9" fill="#87c46f" opacity="0.94" transform="rotate(26 325.8 280.2)"/><ellipse cx="352.0" cy="254.9" rx="45.6" ry="36.1" fill="#c97a73" opacity="0.94" transform="rotate(64 352.0 254.9)"/><ellipse cx="375.5" cy="221.7" rx="23.0" ry="19.3" fill="#e0948e" opacity="0.94" transform="rotate(83 375.5 221.7)"/><ellipse cx="424.5" cy="268.4" rx="45.1" ry="31.6" fill="#5f9e49" opacity="0.94" transform="rotate(93 424.5 268.4)"/><ellipse cx="483.7" cy="266.4" rx="34.4" ry="27.9" fill="#c97a73" opacity="0.94" transform="rotate(49 483.7 266.4)"/>
  <circle cx="330.1" cy="224.6" r="2.1" fill="#3f6b32" opacity="0.7"/><circle cx="465.0" cy="283.5" r="2.7" fill="#ffffff" opacity="0.7"/><circle cx="425.3" cy="225.0" r="2.8" fill="#ffffff" opacity="0.7"/><circle cx="468.8" cy="338.9" r="3.3" fill="#ffffff" opacity="0.7"/><circle cx="458.5" cy="268.8" r="3.5" fill="#ffffff" opacity="0.7"/><circle cx="364.0" cy="307.8" r="3.9" fill="#ffffff" opacity="0.7"/><circle cx="490.4" cy="253.4" r="3.7" fill="#ffffff" opacity="0.7"/><circle cx="403.8" cy="294.0" r="1.7" fill="#ffffff" opacity="0.7"/><circle cx="331.5" cy="342.5" r="1.8" fill="#3f6b32" opacity="0.7"/><circle cx="413.9" cy="295.9" r="1.9" fill="#3f6b32" opacity="0.7"/><circle cx="405.7" cy="287.7" r="3.9" fill="#3f6b32" opacity="0.7"/><circle cx="419.4" cy="387.1" r="2.5" fill="#3f6b32" opacity="0.7"/><circle cx="499.4" cy="261.5" r="3.4" fill="#ffffff" opacity="0.7"/><circle cx="392.2" cy="292.0" r="3.4" fill="#3f6b32" opacity="0.7"/><circle cx="443.4" cy="271.2" r="2.1" fill="#ffffff" opacity="0.7"/><circle cx="395.6" cy="292.9" r="2.0" fill="#ffffff" opacity="0.7"/>
</svg>
