<svg xmlns="http://www.w3.org/2000/svg" viewBox="0 0 800 560" width="800" height="560" role="img" aria-label="Leche Flan">
  <defs>
    <linearGradient id="bg" x1="0" y1="0" x2="1" y2="1">
      <stop offset="0%" stop-color="#fff2d9"/>
      <stop offset="100%" stop-color="#ffdcc4"/>
    </linearGradient>
    <radialGradient id="glow" cx="50%" cy="42%" r="62%">
      <stop offset="0%" stop-color="#ffffff" stop-opacity="0.55"/>
      <stop offset="100%" stop-color="#ffffff" stop-opacity="0"/>
    </radialGradient>
  </defs>
  <rect width="800" height="560" fill="url(#bg)"/>
  <rect width="800" height="560" fill="url(#glow)"/>
  <circle cx="85.7" cy="468.9" r="5.7" fill="#ffffff" opacity="0.41"/><circle cx="337.4" cy="66.1" r="8.3" fill="#ffffff" opacity="0.21"/><circle cx="638.2" cy="268.4" r="7.7" fill="#ffffff" opacity="0.36"/><circle cx="148.9" cy="325.3" r="11.4" fill="#ffffff" opacity="0.31"/><circle cx="678.4" cy="302.3" r="3.4" fill="#ffffff" opacity="0.36"/><circle cx="606.5" cy="523.3" r="6.6" fill="#ffffff" opacity="0.43"/><circle cx="172.2" cy="310.7" r="3.6" fill="#ffffff" opacity="0.30"/><circle cx="587.4" cy="508.0" r="10.7" fill="#ffffff" opacity="0.43"/><circle cx="105.9" cy="184.2" r="6.6" fill="#ffffff" opacity="0.38"/><circle cx="529.6" cy="520.2" r="7.8" fill="#ffffff" opacity="0.46"/><circle cx="562.2" cy="449.8" r="7.3" fill="#ffffff" opacity="0.27"/><circle cx="93.0" cy="260.7" r="8.1" fill="#ffffff" opacity="0.27"/><circle cx="257.7" cy="105.6" r="10.2" fill="#ffffff" opacity="0.42"/><circle cx="55.0" cy="39.9" r="8.5" fill="#ffffff" opacity="0.30"/><circle cx="331.5" cy="21.1" r="10.4" fill="#ffffff" opacity="0.34"/>
  
    <circle cx="400" cy="290" r="196" fill="#ffffff" opacity="0.96"/>
    <circle cx="400" cy="290" r="164" fill="#ffffff"/>
    <circle cx="400" cy="290" r="164" fill="none" stroke="#000000" stroke-opacity="0.05" stroke-width="2"/>
  <ellipse cx="489.6" cy="302.5" rx="21.6" ry="19.1" fill="#cb85af" opacity="0.94" transform="rotate(42 489.6 302.5)"/><ellipse cx="429.9" cy="308.2" rx="33.3" ry="26.6" fill="#cb85af" opacity="0.94" transform="rotate(132 429.9 308.2)"/><ellipse cx="404.1" cy="357.1" rx="44.6" ry="31.9" fill="#87c46f" opacity="0.94" transform="rotate(61 404.1 357.1)"/><ellipse cx="377.7" cy="313.5" rx="29.6" ry="20.8" fill="#cb85af" opacity="0.94" transform="rotate(35 377.7 313.5)"/><ellipse cx="291.4" cy="304.1" rx="36.8" ry="28.6" fill="#f2c9df" opacity="0.94" transform="rotate(40 291.4 304.1)"/><ellipse cx="365.2" cy="285.7" rx="41.9" ry="35.4" fill="#5f9e49" opacity="0.94" transform="rotate(54 365.2 285.7)"/><ellipse cx="331.0" cy="233.3" rx="41.0" ry="30.3" fill="#cb85af" opacity="0.94" transform="rotate(125 331.0 233.3)"/><ellipse cx="386.0" cy="193.7" rx="20.5" ry="14.0" fill="#f2c9df" opacity="0.94" transform="rotate(8 386.0 193.7)"/><ellipse cx="444.2" cy="243.7" rx="33.9" ry="29.5" fill="#5f9e49" opacity="0.94" transform="rotate(64 444.2 243.7)"/><ellipse cx="490.5" cy="255.7" rx="39.5" ry="25.6" fill="#e2a3c6" opacity="0.94" transform="rotate(138 490.5 255.7)"/>
  <circle cx="491.6" cy="357.6" r="2.4" fill="#3f6b32" opacity="0.7"/><circle cx="318.9" cy="350.3" r="3.9" fill="#3f6b32" opacity="0.7"/><circle cx="486.7" cy="272.0" r="3.0" fill="#ffffff" opacity="0.7"/><circle cx="422.6" cy="291.1" r="2.1" fill="#ffffff" opacity="0.7"/><circle cx="350.5" cy="279.2" r="2.8" fill="#ffffff" opacity="0.7"/><circle cx="497.7" cy="289.1" r="1.6" fill="#3f6b32" opacity="0.7"/><circle cx="410.5" cy="329.8" r="3.3" fill="#ffffff" opacity="0.7"/><circle cx="363.9" cy="363.2" r="1.7" fill="#3f6b32" opacity="0.7"/><circle cx="351.4" cy="318.6" r="3.5" fill="#ffffff" opacity="0.7"/><circle cx="366.5" cy="256.0" r="1.9" fill="#3f6b32" opacity="0.7"/><circle cx="409.4" cy="287.0" r="2.5" fill="#3f6b32" opacity="0.7"/><circle cx="417.9" cy="333.9" r="2.7" fill="#ffffff" opacity="0.7"/><circle cx="327.7" cy="352.1" r="2.5" fill="#ffffff" opacity="0.7"/><circle cx="403.4" cy="374.9" r="3.5" fill="#ffffff" opacity="0.7"/><circle cx="475.1" cy="232.3" r="3.6" fill="#ffffff" opacity="0.7"/><circle cx="413.2" cy="283.4" r="2.9" fill="#ffffff" opacity="0.7"/>
  
    <g>
      <rect x="40" y="36" rx="19" ry="19" width="162" height="38" fill="#ffffff" opacity="0.82"/>
      <text x="121" y="61" text-anchor="middle"
        font-family="Segoe UI, system-ui, sans-serif" font-size="19" font-weight="700" fill="#2b5a41"
        letter-spacing="0.6">FILIPINO</text>
    </g>
</svg>
