<svg xmlns="http://www.w3.org/2000/svg" viewBox="0 0 800 560" width="800" height="560" role="img" aria-label="Chicken Inasal">
  <defs>
    <linearGradient id="bg" x1="0" y1="0" x2="1" y2="1">
      <stop offset="0%" stop-color="#fff2d9"/>
      <stop offset="100%" stop-color="#ffdcc4"/>
    </linearGradient>
    <radialGradient id="glow" cx="50%" cy="42%" r="62%">
      <stop offset="0%" stop-color="#ffffff" stop-opacity="0.55"/>
      <stop offset="100%" stop-color="#ffffff" stop-opacity="0"/>
    </radialGradient>
  </defs>
  <rect width="800" height="560" fill="url(#bg)"/>
  <rect width="800" height="560" fill="url(#glow)"/>
  <circle cx="287.5" cy="498.2" r="8.8" fill="#ffffff" opacity="0.37"/><circle cx="388.4" cy="49.9" r="10.3" fill="#ffffff" opacity="0.29"/><circle cx="54.5" cy="538.1" r="9.6" fill="#ffffff" opacity="0.33"/><circle cx="500.6" cy="33.8" r="8.1" fill="#ffffff" opacity="0.38"/><circle cx="73.3" cy="43.7" r="6.7" fill="#ffffff" opacity="0.20"/><circle cx="623.7" cy="324.8" r="9.5" fill="#ffffff" opacity="0.29"/><circle cx="740.8" cy="496.1" r="10.1" fill="#ffffff" opacity="0.24"/><circle cx="740.4" cy="460.2" r="7.0" fill="#ffffff" opacity="0.42"/><circle cx="691.3" cy="223.2" r="5.5" fill="#ffffff" opacity="0.46"/><circle cx="126.0" cy="337.7" r="8.1" fill="#ffffff" opacity="0.43"/><circle cx="550.0" cy="92.4" r="9.4" fill="#ffffff" opacity="0.24"/><circle cx="589.4" cy="131.3" r="11.0" fill="#ffffff" opacity="0.40"/><circle cx="669.3" cy="272.1" r="8.0" fill="#ffffff" opacity="0.36"/><circle cx="643.1" cy="384.1" r="8.8" fill="#ffffff" opacity="0.43"/><circle cx="63.1" cy="270.6" r="8.4" fill="#ffffff" opacity="0.39"/>
  
    <circle cx="400" cy="290" r="196" fill="#ffffff" opacity="0.96"/>
    <circle cx="400" cy="290" r="164" fill="#ffffff"/>
    <circle cx="400" cy="290" r="164" fill="none" stroke="#000000" stroke-opacity="0.05" stroke-width="2"/>
  <ellipse cx="455.5" cy="303.2" rx="36.1" ry="23.6" fill="#e6b45f" opacity="0.94" transform="rotate(19 455.5 303.2)"/><ellipse cx="419.8" cy="341.6" rx="33.4" ry="29.1" fill="#e6b45f" opacity="0.94" transform="rotate(109 419.8 341.6)"/><ellipse cx="381.4" cy="358.5" rx="29.2" ry="22.0" fill="#87c46f" opacity="0.94" transform="rotate(125 381.4 358.5)"/><ellipse cx="323.1" cy="324.1" rx="27.7" ry="24.3" fill="#e6b45f" opacity="0.94" transform="rotate(18 323.1 324.1)"/><ellipse cx="361.3" cy="279.4" rx="38.9" ry="29.8" fill="#e6b45f" opacity="0.94" transform="rotate(151 361.3 279.4)"/><ellipse cx="320.6" cy="213.4" rx="26.5" ry="22.2" fill="#5f9e49" opacity="0.94" transform="rotate(170 320.6 213.4)"/><ellipse cx="401.2" cy="244.1" rx="45.8" ry="37.1" fill="#d29b45" opacity="0.94" transform="rotate(173 401.2 244.1)"/><ellipse cx="461.5" cy="271.0" rx="37.8" ry="34.7" fill="#f2cd8c" opacity="0.94" transform="rotate(26 461.5 271.0)"/>
  <circle cx="506.3" cy="332.1" r="3.3" fill="#ffffff" opacity="0.7"/><circle cx="454.4" cy="319.6" r="3.9" fill="#3f6b32" opacity="0.7"/><circle cx="420.4" cy="353.7" r="2.9" fill="#3f6b32" opacity="0.7"/><circle cx="386.3" cy="277.3" r="3.6" fill="#ffffff" opacity="0.7"/><circle cx="395.5" cy="289.9" r="3.5" fill="#3f6b32" opacity="0.7"/><circle cx="360.5" cy="326.3" r="2.6" fill="#ffffff" opacity="0.7"/><circle cx="401.6" cy="303.4" r="2.7" fill="#ffffff" opacity="0.7"/><circle cx="276.4" cy="278.6" r="2.5" fill="#3f6b32" opacity="0.7"/><circle cx="396.5" cy="285.8" r="3.6" fill="#3f6b32" opacity="0.7"/><circle cx="383.0" cy="286.7" r="2.7" fill="#3f6b32" opacity="0.7"/><circle cx="392.4" cy="202.0" r="2.5" fill="#ffffff" opacity="0.7"/><circle cx="480.3" cy="228.5" r="2.4" fill="#3f6b32" opacity="0.7"/><circle cx="483.5" cy="221.8" r="1.7" fill="#ffffff" opacity="0.7"/><circle cx="376.5" cy="290.7" r="2.2" fill="#3f6b32" opacity="0.7"/><circle cx="391.6" cy="255.0" r="3.3" fill="#ffffff" opacity="0.7"/><circle cx="385.2" cy="293.2" r="4.0" fill="#3f6b32" opacity="0.7"/>
</svg>
