<svg xmlns="http://www.w3.org/2000/svg" viewBox="0 0 800 560" width="800" height="560" role="img" aria-label="La Paz Batchoy">
  <defs>
    <linearGradient id="bg" x1="0" y1="0" x2="1" y2="1">
      <stop offset="0%" stop-color="#fff2d9"/>
      <stop offset="100%" stop-color="#ffdcc4"/>
    </linearGradient>
    <radialGradient id="glow" cx="50%" cy="42%" r="62%">
      <stop offset="0%" stop-color="#ffffff" stop-opacity="0.55"/>
      <stop offset="100%" stop-color="#ffffff" stop-opacity="0"/>
    </radialGradient>
  </defs>
  <rect width="800" height="560" fill="url(#bg)"/>
  <rect width="800" height="560" fill="url(#glow)"/>
  <circle cx="512.8" cy="31.4" r="5.9" fill="#ffffff" opacity="0.40"/><circle cx="45.0" cy="471.0" r="5.8" fill="#ffffff" opacity="0.28"/><circle cx="718.8" cy="221.9" r="10.3" fill="#ffffff" opacity="0.31"/><circle cx="95.5" cy="151.3" r="11.5" fill="#ffffff" opacity="0.30"/><circle cx="125.1" cy="364.0" r="10.9" fill="#ffffff" opacity="0.40"/><circle cx="592.6" cy="147.4" r="9.1" fill="#ffffff" opacity="0.18"/><circle cx="150.2" cy="181.2" r="7.8" fill="#ffffff" opacity="0.25"/><circle cx="685.9" cy="337.5" r="5.2" fill="#ffffff" opacity="0.45"/><circle cx="93.3" cy="117.4" r="6.8" fill="#ffffff" opacity="0.37"/><circle cx="105.7" cy="199.1" r="6.0" fill="#ffffff" opacity="0.30"/><circle cx="513.9" cy="502.5" r="8.7" fill="#ffffff" opacity="0.28"/><circle cx="629.8" cy="347.2" r="11.0" fill="#ffffff" opacity="0.42"/><circle cx="616.7" cy="476.1" r="8.1" fill="#ffffff" opacity="0.48"/><circle cx="476.9" cy="535.4" r="4.6" fill="#ffffff" opacity="0.44"/><circle cx="773.1" cy="437.9" r="9.5" fill="#ffffff" opacity="0.18"/>
  
    <circle cx="400" cy="290" r="196" fill="#ffffff" opacity="0.96"/>
    <circle cx="400" cy="290" r="180" fill="#e9cd7c" opacity="0.82"/>
    <circle cx="400" cy="290" r="180" fill="none" stroke="#000000" stroke-opacity="0.06" stroke-width="3"/>
  <ellipse cx="400" cy="296" rx="74" ry="56" fill="#f5e4ae" opacity="0.95"/><ellipse cx="453.1" cy="295.5" rx="34.8" ry="28.0" fill="#f5e4ae" opacity="0.94" transform="rotate(18 453.1 295.5)"/><ellipse cx="428.0" cy="325.3" rx="40.7" ry="37.1" fill="#f5e4ae" opacity="0.94" transform="rotate(5 428.0 325.3)"/><ellipse cx="403.9" cy="358.7" rx="24.9" ry="18.0" fill="#5f9e49" opacity="0.94" transform="rotate(41 403.9 358.7)"/><ellipse cx="363.8" cy="328.7" rx="45.0" ry="29.0" fill="#e9cd7c" opacity="0.94" transform="rotate(104 363.8 328.7)"/><ellipse cx="334.3" cy="305.1" rx="25.7" ry="19.8" fill="#e9cd7c" opacity="0.94" transform="rotate(135 334.3 305.1)"/><ellipse cx="346.5" cy="267.2" rx="35.4" ry="23.8" fill="#74b45c" opacity="0.94" transform="rotate(104 346.5 267.2)"/><ellipse cx="353.9" cy="243.0" rx="26.0" ry="22.8" fill="#f5e4ae" opacity="0.94" transform="rotate(13 353.9 243.0)"/><ellipse cx="387.9" cy="248.1" rx="20.1" ry="18.0" fill="#f5e4ae" opacity="0.94" transform="rotate(44 387.9 248.1)"/><ellipse cx="443.8" cy="236.6" rx="40.4" ry="37.1" fill="#74b45c" opacity="0.94" transform="rotate(56 443.8 236.6)"/><ellipse cx="506.2" cy="252.9" rx="36.5" ry="22.6" fill="#f5e4ae" opacity="0.94" transform="rotate(48 506.2 252.9)"/>
  <circle cx="277.8" cy="288.2" r="3.0" fill="#3f6b32" opacity="0.7"/><circle cx="446.1" cy="208.1" r="3.4" fill="#ffffff" opacity="0.7"/><circle cx="507.5" cy="270.2" r="2.4" fill="#3f6b32" opacity="0.7"/><circle cx="313.2" cy="237.4" r="3.7" fill="#3f6b32" opacity="0.7"/><circle cx="339.3" cy="252.2" r="2.2" fill="#3f6b32" opacity="0.7"/><circle cx="385.4" cy="290.5" r="3.8" fill="#ffffff" opacity="0.7"/><circle cx="426.8" cy="227.6" r="2.3" fill="#ffffff" opacity="0.7"/><circle cx="484.0" cy="314.8" r="3.6" fill="#3f6b32" opacity="0.7"/><circle cx="387.0" cy="325.7" r="2.2" fill="#ffffff" opacity="0.7"/><circle cx="373.7" cy="202.7" r="2.1" fill="#ffffff" opacity="0.7"/><circle cx="308.5" cy="292.6" r="2.4" fill="#ffffff" opacity="0.7"/><circle cx="455.6" cy="279.6" r="2.1" fill="#3f6b32" opacity="0.7"/><circle cx="444.5" cy="291.3" r="3.3" fill="#3f6b32" opacity="0.7"/><circle cx="471.5" cy="253.0" r="3.3" fill="#ffffff" opacity="0.7"/><circle cx="287.3" cy="332.1" r="3.0" fill="#3f6b32" opacity="0.7"/><circle cx="404.5" cy="293.9" r="3.3" fill="#3f6b32" opacity="0.7"/>
  
    <g stroke="#ffffff" stroke-opacity="0.65" stroke-width="7" stroke-linecap="round" fill="none">
      <path d="M354 98 c -14 -26 14 -42 0 -62"/>
      <path d="M400 86 c -16 -30 16 -48 0 -70"/>
      <path d="M446 98 c -14 -26 14 -42 0 -62"/>
    </g>
</svg>
