<svg xmlns="http://www.w3.org/2000/svg" viewBox="0 0 800 560" width="800" height="560" role="img" aria-label="Masala Dosa">
  <defs>
    <linearGradient id="bg" x1="0" y1="0" x2="1" y2="1">
      <stop offset="0%" stop-color="#fff4dd"/>
      <stop offset="100%" stop-color="#ffe1bf"/>
    </linearGradient>
    <radialGradient id="glow" cx="50%" cy="42%" r="62%">
      <stop offset="0%" stop-color="#ffffff" stop-opacity="0.55"/>
      <stop offset="100%" stop-color="#ffffff" stop-opacity="0"/>
    </radialGradient>
  </defs>
  <rect width="800" height="560" fill="url(#bg)"/>
  <rect width="800" height="560" fill="url(#glow)"/>
  <circle cx="583.5" cy="452.8" r="7.8" fill="#ffffff" opacity="0.43"/><circle cx="705.0" cy="453.1" r="7.1" fill="#ffffff" opacity="0.47"/><circle cx="601.3" cy="71.7" r="7.2" fill="#ffffff" opacity="0.46"/><circle cx="688.6" cy="253.1" r="9.5" fill="#ffffff" opacity="0.33"/><circle cx="776.9" cy="283.7" r="6.1" fill="#ffffff" opacity="0.24"/><circle cx="731.6" cy="390.0" r="7.1" fill="#ffffff" opacity="0.31"/><circle cx="461.7" cy="47.6" r="6.4" fill="#ffffff" opacity="0.46"/><circle cx="62.7" cy="378.3" r="4.0" fill="#ffffff" opacity="0.42"/><circle cx="121.8" cy="258.3" r="9.4" fill="#ffffff" opacity="0.47"/><circle cx="187.2" cy="67.0" r="9.2" fill="#ffffff" opacity="0.29"/><circle cx="91.0" cy="524.7" r="5.5" fill="#ffffff" opacity="0.26"/><circle cx="698.3" cy="272.6" r="4.8" fill="#ffffff" opacity="0.22"/><circle cx="85.4" cy="360.2" r="3.3" fill="#ffffff" opacity="0.34"/><circle cx="128.4" cy="301.3" r="5.7" fill="#ffffff" opacity="0.41"/><circle cx="30.1" cy="134.8" r="9.0" fill="#ffffff" opacity="0.38"/><circle cx="774.9" cy="462.2" r="4.3" fill="#ffffff" opacity="0.23"/>
  
    <circle cx="400" cy="290" r="196" fill="#ffffff" opacity="0.96"/>
    <circle cx="400" cy="290" r="164" fill="#ffffff"/>
    <circle cx="400" cy="290" r="164" fill="none" stroke="#000000" stroke-opacity="0.05" stroke-width="2"/>
  <ellipse cx="450.6" cy="299.8" rx="31.5" ry="24.1" fill="#dca85e" opacity="0.94" transform="rotate(152 450.6 299.8)"/><ellipse cx="432.2" cy="334.6" rx="22.6" ry="19.5" fill="#f0c07a" opacity="0.94" transform="rotate(27 432.2 334.6)"/><ellipse cx="389.8" cy="331.7" rx="22.9" ry="14.3" fill="#74b45c" opacity="0.94" transform="rotate(25 389.8 331.7)"/><ellipse cx="335.8" cy="369.4" rx="20.9" ry="18.2" fill="#f0c07a" opacity="0.94" transform="rotate(6 335.8 369.4)"/><ellipse cx="320.8" cy="311.3" rx="34.4" ry="28.6" fill="#f8dcae" opacity="0.94" transform="rotate(110 320.8 311.3)"/><ellipse cx="368.4" cy="266.8" rx="28.0" ry="18.3" fill="#5f9e49" opacity="0.94" transform="rotate(134 368.4 266.8)"/><ellipse cx="382.9" cy="256.8" rx="29.7" ry="23.1" fill="#f8dcae" opacity="0.94" transform="rotate(72 382.9 256.8)"/><ellipse cx="448.3" cy="233.7" rx="39.5" ry="29.6" fill="#f0c07a" opacity="0.94" transform="rotate(107 448.3 233.7)"/><ellipse cx="446.1" cy="273.7" rx="27.8" ry="25.3" fill="#74b45c" opacity="0.94" transform="rotate(153 446.1 273.7)"/>
  <circle cx="469.5" cy="290.0" r="2.2" fill="#ffffff" opacity="0.7"/><circle cx="410.2" cy="226.4" r="3.1" fill="#3f6b32" opacity="0.7"/><circle cx="365.5" cy="296.3" r="2.4" fill="#3f6b32" opacity="0.7"/><circle cx="444.9" cy="200.7" r="1.7" fill="#ffffff" opacity="0.7"/><circle cx="388.6" cy="325.9" r="1.7" fill="#3f6b32" opacity="0.7"/><circle cx="391.6" cy="290.0" r="2.9" fill="#3f6b32" opacity="0.7"/><circle cx="432.3" cy="364.3" r="3.2" fill="#3f6b32" opacity="0.7"/><circle cx="452.7" cy="275.6" r="2.1" fill="#3f6b32" opacity="0.7"/><circle cx="416.3" cy="214.3" r="3.6" fill="#3f6b32" opacity="0.7"/><circle cx="448.6" cy="220.6" r="3.5" fill="#ffffff" opacity="0.7"/><circle cx="393.6" cy="279.0" r="3.5" fill="#ffffff" opacity="0.7"/><circle cx="389.3" cy="271.8" r="2.4" fill="#ffffff" opacity="0.7"/><circle cx="385.3" cy="337.3" r="3.7" fill="#3f6b32" opacity="0.7"/><circle cx="455.2" cy="294.8" r="2.3" fill="#3f6b32" opacity="0.7"/><circle cx="394.2" cy="267.6" r="1.8" fill="#ffffff" opacity="0.7"/><circle cx="411.1" cy="248.8" r="3.5" fill="#3f6b32" opacity="0.7"/>
</svg>
