<svg xmlns="http://www.w3.org/2000/svg" viewBox="0 0 800 560" width="800" height="560" role="img" aria-label="Kongguksu">
  <defs>
    <linearGradient id="bg" x1="0" y1="0" x2="1" y2="1">
      <stop offset="0%" stop-color="#fdeceb"/>
      <stop offset="100%" stop-color="#e9e9fa"/>
    </linearGradient>
    <radialGradient id="glow" cx="50%" cy="42%" r="62%">
      <stop offset="0%" stop-color="#ffffff" stop-opacity="0.55"/>
      <stop offset="100%" stop-color="#ffffff" stop-opacity="0"/>
    </radialGradient>
  </defs>
  <rect width="800" height="560" fill="url(#bg)"/>
  <rect width="800" height="560" fill="url(#glow)"/>
  <circle cx="239.7" cy="59.4" r="11.7" fill="#ffffff" opacity="0.35"/><circle cx="40.1" cy="70.7" r="10.8" fill="#ffffff" opacity="0.41"/><circle cx="774.5" cy="270.3" r="11.0" fill="#ffffff" opacity="0.25"/><circle cx="401.1" cy="24.3" r="6.7" fill="#ffffff" opacity="0.18"/><circle cx="98.6" cy="319.1" r="10.7" fill="#ffffff" opacity="0.40"/><circle cx="719.3" cy="100.3" r="7.5" fill="#ffffff" opacity="0.19"/><circle cx="166.9" cy="406.8" r="7.6" fill="#ffffff" opacity="0.31"/><circle cx="762.2" cy="84.6" r="7.2" fill="#ffffff" opacity="0.19"/><circle cx="86.8" cy="510.9" r="4.8" fill="#ffffff" opacity="0.29"/><circle cx="154.6" cy="239.1" r="10.2" fill="#ffffff" opacity="0.28"/><circle cx="212.8" cy="106.6" r="7.9" fill="#ffffff" opacity="0.19"/><circle cx="699.1" cy="142.4" r="3.8" fill="#ffffff" opacity="0.23"/><circle cx="110.3" cy="527.4" r="8.4" fill="#ffffff" opacity="0.36"/><circle cx="104.9" cy="454.1" r="4.2" fill="#ffffff" opacity="0.33"/><circle cx="497.7" cy="38.3" r="3.7" fill="#ffffff" opacity="0.39"/><circle cx="678.9" cy="494.7" r="10.4" fill="#ffffff" opacity="0.40"/>
  
    <circle cx="400" cy="290" r="196" fill="#ffffff" opacity="0.96"/>
    <circle cx="400" cy="290" r="164" fill="#ffffff"/>
    <circle cx="400" cy="290" r="164" fill="none" stroke="#000000" stroke-opacity="0.05" stroke-width="2"/>
  <ellipse cx="519.6" cy="301.1" rx="32.6" ry="28.8" fill="#568c43" opacity="0.94" transform="rotate(99 519.6 301.1)"/><ellipse cx="430.5" cy="348.7" rx="40.4" ry="27.1" fill="#568c43" opacity="0.94" transform="rotate(60 430.5 348.7)"/><ellipse cx="382.8" cy="335.3" rx="21.3" ry="15.7" fill="#87c46f" opacity="0.94" transform="rotate(65 382.8 335.3)"/><ellipse cx="350.6" cy="307.3" rx="39.5" ry="25.4" fill="#9ccd85" opacity="0.94" transform="rotate(53 350.6 307.3)"/><ellipse cx="292.0" cy="284.4" rx="45.9" ry="35.6" fill="#6fae57" opacity="0.94" transform="rotate(63 292.0 284.4)"/><ellipse cx="375.5" cy="269.8" rx="36.6" ry="30.9" fill="#5f9e49" opacity="0.94" transform="rotate(119 375.5 269.8)"/><ellipse cx="412.9" cy="236.6" rx="40.7" ry="34.8" fill="#9ccd85" opacity="0.94" transform="rotate(10 412.9 236.6)"/><ellipse cx="438.9" cy="274.2" rx="41.5" ry="31.8" fill="#6fae57" opacity="0.94" transform="rotate(82 438.9 274.2)"/>
  <circle cx="399.8" cy="292.1" r="1.9" fill="#3f6b32" opacity="0.7"/><circle cx="421.6" cy="266.1" r="2.4" fill="#ffffff" opacity="0.7"/><circle cx="401.8" cy="287.6" r="2.0" fill="#ffffff" opacity="0.7"/><circle cx="514.8" cy="290.0" r="2.7" fill="#3f6b32" opacity="0.7"/><circle cx="324.9" cy="251.6" r="2.5" fill="#ffffff" opacity="0.7"/><circle cx="349.7" cy="320.9" r="2.7" fill="#ffffff" opacity="0.7"/><circle cx="403.8" cy="290.4" r="2.9" fill="#3f6b32" opacity="0.7"/><circle cx="433.5" cy="274.9" r="3.1" fill="#ffffff" opacity="0.7"/><circle cx="288.1" cy="320.3" r="2.3" fill="#ffffff" opacity="0.7"/><circle cx="371.3" cy="374.3" r="2.7" fill="#ffffff" opacity="0.7"/><circle cx="491.3" cy="358.0" r="3.7" fill="#3f6b32" opacity="0.7"/><circle cx="398.5" cy="278.0" r="1.7" fill="#ffffff" opacity="0.7"/><circle cx="362.7" cy="302.2" r="2.2" fill="#ffffff" opacity="0.7"/><circle cx="365.5" cy="284.1" r="2.3" fill="#3f6b32" opacity="0.7"/><circle cx="404.3" cy="277.8" r="1.6" fill="#3f6b32" opacity="0.7"/><circle cx="441.7" cy="344.7" r="2.2" fill="#ffffff" opacity="0.7"/>
</svg>
