<svg xmlns="http://www.w3.org/2000/svg" viewBox="0 0 800 560" width="800" height="560" role="img" aria-label="Braised Mackerel with Radish">
  <defs>
    <linearGradient id="bg" x1="0" y1="0" x2="1" y2="1">
      <stop offset="0%" stop-color="#fdeceb"/>
      <stop offset="100%" stop-color="#e9e9fa"/>
    </linearGradient>
    <radialGradient id="glow" cx="50%" cy="42%" r="62%">
      <stop offset="0%" stop-color="#ffffff" stop-opacity="0.55"/>
      <stop offset="100%" stop-color="#ffffff" stop-opacity="0"/>
    </radialGradient>
  </defs>
  <rect width="800" height="560" fill="url(#bg)"/>
  <rect width="800" height="560" fill="url(#glow)"/>
  <circle cx="702.9" cy="434.5" r="5.4" fill="#ffffff" opacity="0.31"/><circle cx="196.0" cy="53.0" r="3.6" fill="#ffffff" opacity="0.39"/><circle cx="585.8" cy="52.4" r="8.2" fill="#ffffff" opacity="0.20"/><circle cx="263.9" cy="537.9" r="4.8" fill="#ffffff" opacity="0.47"/><circle cx="40.7" cy="137.1" r="11.5" fill="#ffffff" opacity="0.23"/><circle cx="713.2" cy="180.3" r="4.6" fill="#ffffff" opacity="0.46"/><circle cx="694.9" cy="178.0" r="3.1" fill="#ffffff" opacity="0.29"/><circle cx="607.2" cy="153.1" r="4.3" fill="#ffffff" opacity="0.27"/><circle cx="457.2" cy="540.0" r="4.5" fill="#ffffff" opacity="0.30"/><circle cx="705.9" cy="40.6" r="4.2" fill="#ffffff" opacity="0.23"/><circle cx="466.7" cy="56.7" r="11.4" fill="#ffffff" opacity="0.43"/><circle cx="179.1" cy="177.5" r="5.5" fill="#ffffff" opacity="0.38"/><circle cx="127.1" cy="531.4" r="11.6" fill="#ffffff" opacity="0.34"/>
  
    <circle cx="400" cy="290" r="196" fill="#ffffff" opacity="0.96"/>
    <circle cx="400" cy="290" r="164" fill="#ffffff"/>
    <circle cx="400" cy="290" r="164" fill="none" stroke="#000000" stroke-opacity="0.05" stroke-width="2"/>
  <ellipse cx="452.8" cy="305.3" rx="36.1" ry="28.1" fill="#9cc0d8" opacity="0.94" transform="rotate(99 452.8 305.3)"/><ellipse cx="439.3" cy="335.0" rx="38.3" ry="32.7" fill="#9cc0d8" opacity="0.94" transform="rotate(101 439.3 335.0)"/><ellipse cx="391.3" cy="318.6" rx="46.0" ry="29.6" fill="#7ba6c4" opacity="0.94" transform="rotate(143 391.3 318.6)"/><ellipse cx="339.5" cy="339.2" rx="37.2" ry="28.8" fill="#c2dcec" opacity="0.94" transform="rotate(17 339.5 339.2)"/><ellipse cx="278.0" cy="285.0" rx="41.1" ry="30.4" fill="#9cc0d8" opacity="0.94" transform="rotate(24 278.0 285.0)"/><ellipse cx="366.1" cy="226.3" rx="39.5" ry="28.3" fill="#7ba6c4" opacity="0.94" transform="rotate(54 366.1 226.3)"/><ellipse cx="415.7" cy="249.8" rx="42.7" ry="34.7" fill="#7ba6c4" opacity="0.94" transform="rotate(85 415.7 249.8)"/><ellipse cx="465.0" cy="260.6" rx="34.9" ry="31.5" fill="#9cc0d8" opacity="0.94" transform="rotate(109 465.0 260.6)"/>
  <circle cx="352.5" cy="298.4" r="2.1" fill="#ffffff" opacity="0.7"/><circle cx="398.8" cy="290.1" r="3.7" fill="#3f6b32" opacity="0.7"/><circle cx="499.8" cy="253.1" r="2.1" fill="#ffffff" opacity="0.7"/><circle cx="388.3" cy="288.1" r="2.4" fill="#3f6b32" opacity="0.7"/><circle cx="523.1" cy="296.4" r="2.1" fill="#3f6b32" opacity="0.7"/><circle cx="334.9" cy="348.9" r="3.4" fill="#3f6b32" opacity="0.7"/><circle cx="300.9" cy="233.4" r="3.3" fill="#ffffff" opacity="0.7"/><circle cx="465.7" cy="348.1" r="2.8" fill="#3f6b32" opacity="0.7"/><circle cx="473.7" cy="312.9" r="1.6" fill="#3f6b32" opacity="0.7"/><circle cx="416.3" cy="320.4" r="3.9" fill="#ffffff" opacity="0.7"/><circle cx="317.3" cy="286.8" r="3.7" fill="#3f6b32" opacity="0.7"/><circle cx="389.8" cy="264.7" r="3.7" fill="#3f6b32" opacity="0.7"/><circle cx="280.1" cy="293.4" r="2.5" fill="#ffffff" opacity="0.7"/><circle cx="301.4" cy="235.6" r="4.0" fill="#3f6b32" opacity="0.7"/><circle cx="396.6" cy="285.9" r="2.0" fill="#ffffff" opacity="0.7"/><circle cx="399.2" cy="289.9" r="3.3" fill="#3f6b32" opacity="0.7"/>
</svg>
