<svg xmlns="http://www.w3.org/2000/svg" viewBox="0 0 800 560" width="800" height="560" role="img" aria-label="Beef and Vegetable Soup">
  <defs>
    <linearGradient id="bg" x1="0" y1="0" x2="1" y2="1">
      <stop offset="0%" stop-color="#f0fadd"/>
      <stop offset="100%" stop-color="#ffe7cd"/>
    </linearGradient>
    <radialGradient id="glow" cx="50%" cy="42%" r="62%">
      <stop offset="0%" stop-color="#ffffff" stop-opacity="0.55"/>
      <stop offset="100%" stop-color="#ffffff" stop-opacity="0"/>
    </radialGradient>
  </defs>
  <rect width="800" height="560" fill="url(#bg)"/>
  <rect width="800" height="560" fill="url(#glow)"/>
  <circle cx="186.5" cy="471.5" r="9.8" fill="#ffffff" opacity="0.27"/><circle cx="780.0" cy="237.2" r="8.9" fill="#ffffff" opacity="0.36"/><circle cx="741.0" cy="102.9" r="6.3" fill="#ffffff" opacity="0.39"/><circle cx="77.7" cy="251.8" r="6.3" fill="#ffffff" opacity="0.21"/><circle cx="192.5" cy="411.2" r="5.5" fill="#ffffff" opacity="0.44"/><circle cx="59.0" cy="481.7" r="3.8" fill="#ffffff" opacity="0.38"/><circle cx="238.4" cy="509.4" r="9.7" fill="#ffffff" opacity="0.37"/><circle cx="108.6" cy="92.6" r="5.3" fill="#ffffff" opacity="0.26"/><circle cx="48.5" cy="454.0" r="4.6" fill="#ffffff" opacity="0.31"/><circle cx="49.1" cy="453.1" r="6.1" fill="#ffffff" opacity="0.25"/><circle cx="479.8" cy="74.8" r="9.4" fill="#ffffff" opacity="0.44"/><circle cx="199.8" cy="421.5" r="4.6" fill="#ffffff" opacity="0.44"/><circle cx="76.8" cy="147.1" r="8.4" fill="#ffffff" opacity="0.46"/><circle cx="505.9" cy="523.9" r="9.8" fill="#ffffff" opacity="0.30"/><circle cx="42.6" cy="124.0" r="8.4" fill="#ffffff" opacity="0.41"/>
  
    <circle cx="400" cy="290" r="196" fill="#ffffff" opacity="0.96"/>
    <circle cx="400" cy="290" r="164" fill="#ffffff"/>
    <circle cx="400" cy="290" r="164" fill="none" stroke="#000000" stroke-opacity="0.05" stroke-width="2"/>
  <ellipse cx="461.7" cy="305.3" rx="45.3" ry="40.9" fill="#8d3f31" opacity="0.94" transform="rotate(24 461.7 305.3)"/><ellipse cx="454.0" cy="349.8" rx="36.5" ry="23.4" fill="#c9705c" opacity="0.94" transform="rotate(141 454.0 349.8)"/><ellipse cx="400.3" cy="359.6" rx="29.0" ry="19.8" fill="#5f9e49" opacity="0.94" transform="rotate(31 400.3 359.6)"/><ellipse cx="351.4" cy="350.6" rx="42.6" ry="38.1" fill="#8d3f31" opacity="0.94" transform="rotate(41 351.4 350.6)"/><ellipse cx="307.0" cy="309.4" rx="36.2" ry="32.7" fill="#8d3f31" opacity="0.94" transform="rotate(44 307.0 309.4)"/><ellipse cx="300.8" cy="261.1" rx="32.9" ry="28.4" fill="#5f9e49" opacity="0.94" transform="rotate(116 300.8 261.1)"/><ellipse cx="330.8" cy="212.8" rx="29.3" ry="19.1" fill="#a8503f" opacity="0.94" transform="rotate(98 330.8 212.8)"/><ellipse cx="409.2" cy="215.7" rx="39.0" ry="28.3" fill="#c9705c" opacity="0.94" transform="rotate(71 409.2 215.7)"/><ellipse cx="464.4" cy="225.4" rx="22.9" ry="14.2" fill="#74b45c" opacity="0.94" transform="rotate(145 464.4 225.4)"/><ellipse cx="475.4" cy="281.5" rx="30.4" ry="21.4" fill="#a8503f" opacity="0.94" transform="rotate(31 475.4 281.5)"/>
  <circle cx="370.5" cy="279.6" r="1.8" fill="#3f6b32" opacity="0.7"/><circle cx="403.2" cy="321.5" r="2.0" fill="#ffffff" opacity="0.7"/><circle cx="356.5" cy="239.0" r="2.7" fill="#3f6b32" opacity="0.7"/><circle cx="311.9" cy="279.3" r="3.4" fill="#3f6b32" opacity="0.7"/><circle cx="342.0" cy="279.7" r="3.1" fill="#ffffff" opacity="0.7"/><circle cx="418.8" cy="273.0" r="2.2" fill="#3f6b32" opacity="0.7"/><circle cx="404.4" cy="239.2" r="3.9" fill="#ffffff" opacity="0.7"/><circle cx="398.3" cy="279.4" r="2.4" fill="#ffffff" opacity="0.7"/><circle cx="359.1" cy="269.3" r="3.2" fill="#3f6b32" opacity="0.7"/><circle cx="407.9" cy="287.9" r="2.2" fill="#3f6b32" opacity="0.7"/><circle cx="349.1" cy="240.1" r="3.6" fill="#3f6b32" opacity="0.7"/><circle cx="463.4" cy="248.3" r="1.9" fill="#3f6b32" opacity="0.7"/><circle cx="464.4" cy="331.6" r="2.0" fill="#ffffff" opacity="0.7"/><circle cx="353.3" cy="257.1" r="3.4" fill="#ffffff" opacity="0.7"/><circle cx="386.0" cy="320.2" r="3.8" fill="#ffffff" opacity="0.7"/><circle cx="417.4" cy="300.0" r="2.3" fill="#3f6b32" opacity="0.7"/>
</svg>
