<svg xmlns="http://www.w3.org/2000/svg" viewBox="0 0 800 560" width="800" height="560" role="img" aria-label="Cheese-Stuffed Poblano Chiles">
  <defs>
    <linearGradient id="bg" x1="0" y1="0" x2="1" y2="1">
      <stop offset="0%" stop-color="#f0fadd"/>
      <stop offset="100%" stop-color="#ffe7cd"/>
    </linearGradient>
    <radialGradient id="glow" cx="50%" cy="42%" r="62%">
      <stop offset="0%" stop-color="#ffffff" stop-opacity="0.55"/>
      <stop offset="100%" stop-color="#ffffff" stop-opacity="0"/>
    </radialGradient>
  </defs>
  <rect width="800" height="560" fill="url(#bg)"/>
  <rect width="800" height="560" fill="url(#glow)"/>
  <circle cx="191.7" cy="539.7" r="4.6" fill="#ffffff" opacity="0.33"/><circle cx="439.3" cy="515.8" r="6.8" fill="#ffffff" opacity="0.30"/><circle cx="49.7" cy="425.4" r="9.8" fill="#ffffff" opacity="0.26"/><circle cx="663.4" cy="291.2" r="5.1" fill="#ffffff" opacity="0.28"/><circle cx="632.0" cy="483.0" r="11.2" fill="#ffffff" opacity="0.21"/><circle cx="725.1" cy="44.1" r="3.3" fill="#ffffff" opacity="0.40"/><circle cx="84.2" cy="463.9" r="7.5" fill="#ffffff" opacity="0.36"/><circle cx="627.4" cy="91.8" r="10.6" fill="#ffffff" opacity="0.39"/><circle cx="595.3" cy="160.0" r="5.4" fill="#ffffff" opacity="0.25"/><circle cx="663.7" cy="484.7" r="11.9" fill="#ffffff" opacity="0.26"/><circle cx="741.6" cy="344.5" r="4.6" fill="#ffffff" opacity="0.22"/><circle cx="677.3" cy="374.0" r="5.0" fill="#ffffff" opacity="0.25"/><circle cx="116.8" cy="532.2" r="7.7" fill="#ffffff" opacity="0.39"/><circle cx="687.3" cy="473.1" r="4.0" fill="#ffffff" opacity="0.44"/><circle cx="347.4" cy="521.3" r="8.5" fill="#ffffff" opacity="0.34"/>
  
    <circle cx="400" cy="290" r="196" fill="#ffffff" opacity="0.96"/>
    <circle cx="400" cy="290" r="164" fill="#ffffff"/>
    <circle cx="400" cy="290" r="164" fill="none" stroke="#000000" stroke-opacity="0.05" stroke-width="2"/>
  <ellipse cx="505.2" cy="305.0" rx="40.8" ry="34.2" fill="#6fae57" opacity="0.94" transform="rotate(55 505.2 305.0)"/><ellipse cx="425.8" cy="330.0" rx="23.4" ry="16.3" fill="#6fae57" opacity="0.94" transform="rotate(17 425.8 330.0)"/><ellipse cx="332.0" cy="364.6" rx="36.0" ry="31.8" fill="#74b45c" opacity="0.94" transform="rotate(126 332.0 364.6)"/><ellipse cx="284.2" cy="304.0" rx="32.6" ry="21.3" fill="#6fae57" opacity="0.94" transform="rotate(172 284.2 304.0)"/><ellipse cx="331.4" cy="215.3" rx="23.7" ry="17.7" fill="#9ccd85" opacity="0.94" transform="rotate(139 331.4 215.3)"/><ellipse cx="405.8" cy="217.1" rx="20.6" ry="17.2" fill="#5f9e49" opacity="0.94" transform="rotate(130 405.8 217.1)"/><ellipse cx="474.8" cy="263.2" rx="45.2" ry="33.4" fill="#568c43" opacity="0.94" transform="rotate(84 474.8 263.2)"/>
  <circle cx="391.1" cy="285.9" r="3.4" fill="#3f6b32" opacity="0.7"/><circle cx="351.8" cy="243.4" r="2.9" fill="#3f6b32" opacity="0.7"/><circle cx="370.4" cy="251.8" r="2.2" fill="#3f6b32" opacity="0.7"/><circle cx="361.7" cy="326.0" r="3.3" fill="#ffffff" opacity="0.7"/><circle cx="395.9" cy="285.9" r="4.0" fill="#3f6b32" opacity="0.7"/><circle cx="395.5" cy="301.0" r="2.7" fill="#ffffff" opacity="0.7"/><circle cx="448.5" cy="264.4" r="3.0" fill="#3f6b32" opacity="0.7"/><circle cx="405.8" cy="330.9" r="2.6" fill="#3f6b32" opacity="0.7"/><circle cx="349.5" cy="326.9" r="2.6" fill="#3f6b32" opacity="0.7"/><circle cx="448.8" cy="252.6" r="3.0" fill="#ffffff" opacity="0.7"/><circle cx="324.2" cy="347.4" r="2.0" fill="#ffffff" opacity="0.7"/><circle cx="378.6" cy="280.2" r="1.8" fill="#3f6b32" opacity="0.7"/><circle cx="347.9" cy="224.1" r="3.6" fill="#ffffff" opacity="0.7"/><circle cx="332.6" cy="284.5" r="3.4" fill="#3f6b32" opacity="0.7"/><circle cx="335.0" cy="220.1" r="3.7" fill="#ffffff" opacity="0.7"/><circle cx="485.5" cy="235.4" r="2.1" fill="#ffffff" opacity="0.7"/>
</svg>
