<svg xmlns="http://www.w3.org/2000/svg" viewBox="0 0 800 560" width="800" height="560" role="img" aria-label="Tlacoyos">
  <defs>
    <linearGradient id="bg" x1="0" y1="0" x2="1" y2="1">
      <stop offset="0%" stop-color="#f0fadd"/>
      <stop offset="100%" stop-color="#ffe7cd"/>
    </linearGradient>
    <radialGradient id="glow" cx="50%" cy="42%" r="62%">
      <stop offset="0%" stop-color="#ffffff" stop-opacity="0.55"/>
      <stop offset="100%" stop-color="#ffffff" stop-opacity="0"/>
    </radialGradient>
  </defs>
  <rect width="800" height="560" fill="url(#bg)"/>
  <rect width="800" height="560" fill="url(#glow)"/>
  <circle cx="637.4" cy="304.7" r="10.7" fill="#ffffff" opacity="0.22"/><circle cx="678.3" cy="467.8" r="4.9" fill="#ffffff" opacity="0.44"/><circle cx="739.7" cy="275.9" r="5.8" fill="#ffffff" opacity="0.34"/><circle cx="50.1" cy="518.2" r="8.3" fill="#ffffff" opacity="0.33"/><circle cx="655.4" cy="120.8" r="10.2" fill="#ffffff" opacity="0.32"/><circle cx="625.6" cy="154.8" r="9.0" fill="#ffffff" opacity="0.48"/><circle cx="662.8" cy="467.8" r="6.5" fill="#ffffff" opacity="0.38"/><circle cx="131.7" cy="176.1" r="8.2" fill="#ffffff" opacity="0.37"/><circle cx="39.5" cy="87.4" r="6.7" fill="#ffffff" opacity="0.22"/><circle cx="29.6" cy="388.6" r="4.0" fill="#ffffff" opacity="0.40"/><circle cx="737.7" cy="495.9" r="6.1" fill="#ffffff" opacity="0.18"/><circle cx="21.0" cy="127.7" r="10.1" fill="#ffffff" opacity="0.21"/><circle cx="187.8" cy="145.2" r="10.2" fill="#ffffff" opacity="0.40"/><circle cx="696.1" cy="400.4" r="9.2" fill="#ffffff" opacity="0.42"/><circle cx="671.5" cy="177.4" r="11.5" fill="#ffffff" opacity="0.44"/><circle cx="165.6" cy="250.8" r="11.8" fill="#ffffff" opacity="0.30"/>
  
    <circle cx="400" cy="290" r="196" fill="#ffffff" opacity="0.96"/>
    <circle cx="400" cy="290" r="164" fill="#ffffff"/>
    <circle cx="400" cy="290" r="164" fill="none" stroke="#000000" stroke-opacity="0.05" stroke-width="2"/>
  <ellipse cx="458.7" cy="295.9" rx="31.4" ry="21.4" fill="#6fae57" opacity="0.94" transform="rotate(179 458.7 295.9)"/><ellipse cx="449.5" cy="342.5" rx="40.3" ry="35.8" fill="#9ccd85" opacity="0.94" transform="rotate(11 449.5 342.5)"/><ellipse cx="368.3" cy="345.3" rx="25.7" ry="16.1" fill="#87c46f" opacity="0.94" transform="rotate(157 368.3 345.3)"/><ellipse cx="361.7" cy="298.7" rx="27.4" ry="23.1" fill="#568c43" opacity="0.94" transform="rotate(31 361.7 298.7)"/><ellipse cx="306.1" cy="234.9" rx="22.3" ry="14.8" fill="#6fae57" opacity="0.94" transform="rotate(114 306.1 234.9)"/><ellipse cx="392.5" cy="204.5" rx="37.4" ry="26.7" fill="#5f9e49" opacity="0.94" transform="rotate(124 392.5 204.5)"/><ellipse cx="488.7" cy="248.4" rx="27.9" ry="25.1" fill="#9ccd85" opacity="0.94" transform="rotate(6 488.7 248.4)"/>
  <circle cx="448.3" cy="335.2" r="3.2" fill="#3f6b32" opacity="0.7"/><circle cx="448.1" cy="325.6" r="3.7" fill="#ffffff" opacity="0.7"/><circle cx="353.3" cy="200.6" r="3.5" fill="#ffffff" opacity="0.7"/><circle cx="401.0" cy="329.8" r="2.4" fill="#ffffff" opacity="0.7"/><circle cx="350.1" cy="286.7" r="3.4" fill="#ffffff" opacity="0.7"/><circle cx="441.9" cy="335.5" r="2.3" fill="#ffffff" opacity="0.7"/><circle cx="363.5" cy="252.1" r="3.7" fill="#ffffff" opacity="0.7"/><circle cx="393.8" cy="291.3" r="2.4" fill="#ffffff" opacity="0.7"/><circle cx="415.3" cy="321.2" r="3.1" fill="#ffffff" opacity="0.7"/><circle cx="304.9" cy="291.7" r="3.3" fill="#3f6b32" opacity="0.7"/><circle cx="423.2" cy="323.1" r="3.9" fill="#3f6b32" opacity="0.7"/><circle cx="368.1" cy="310.5" r="2.0" fill="#ffffff" opacity="0.7"/><circle cx="310.5" cy="358.3" r="2.5" fill="#3f6b32" opacity="0.7"/><circle cx="483.1" cy="238.4" r="2.2" fill="#3f6b32" opacity="0.7"/><circle cx="383.8" cy="265.3" r="2.5" fill="#ffffff" opacity="0.7"/><circle cx="353.4" cy="306.5" r="2.1" fill="#ffffff" opacity="0.7"/>
</svg>
